<svg width="28" height="28" viewBox="0 0 28 28" fill="none" xmlns="http://www.w3.org/2000/svg">
<path d="M5.28398 24.0893C7.70339 26.1858 10.7986 27.3378 14 27.3333C21.364 27.3333 27.3333 21.364 27.3333 14C27.3333 6.636 21.364 0.666668 14 0.666668C6.63598 0.666668 0.666645 6.636 0.666645 14C0.666645 16.848 1.55998 19.488 3.07998 21.6533L7.33331 14H3.33331C3.33351 11.5416 4.18289 9.15875 5.73775 7.25452C7.29261 5.35029 9.4575 4.04159 11.8662 3.54981C14.2749 3.05803 16.7795 3.41336 18.9564 4.55569C21.1333 5.69802 22.8487 7.55722 23.8126 9.81878C24.7765 12.0803 24.9296 14.6054 24.246 16.9669C23.5624 19.3283 22.0841 21.3811 20.0612 22.7781C18.0383 24.175 15.5949 24.8304 13.1445 24.6332C10.694 24.436 8.38684 23.3984 6.61331 21.696L5.28398 24.0893Z" fill="white"/>
</svg>
