<svg width="20" height="18" viewBox="0 0 20 18" fill="none" xmlns="http://www.w3.org/2000/svg">
<path d="M0.833374 1.66025C0.835052 1.41951 0.931366 1.1891 1.10151 1.01878C1.27166 0.848466 1.50197 0.75192 1.74271 0.75H18.2574C18.7597 0.75 19.1667 1.15792 19.1667 1.66025V16.3398C19.165 16.5805 19.0687 16.8109 18.8986 16.9812C18.7284 17.1515 18.4981 17.2481 18.2574 17.25H1.74271C1.50145 17.2498 1.27016 17.1537 1.09966 16.9831C0.929149 16.8124 0.833374 16.581 0.833374 16.3398V1.66025ZM9.08337 2.58333H2.66671V15.4167H9.08337V2.58333ZM10.9167 2.58333V15.4167H17.3334V2.58333H10.9167ZM11.8334 4.41667H16.4167V6.25H11.8334V4.41667ZM11.8334 7.16667H16.4167V9H11.8334V7.16667Z" fill="white"/>
</svg>
