<svg width="28" height="28" viewBox="0 0 28 28" fill="none" xmlns="http://www.w3.org/2000/svg">
<path d="M22.716 24.0893C20.2966 26.1858 17.2014 27.3378 14 27.3333C6.63602 27.3333 0.666687 21.364 0.666687 14C0.666687 6.636 6.63602 0.666668 14 0.666668C21.364 0.666668 27.3334 6.636 27.3334 14C27.3334 16.848 26.44 19.488 24.92 21.6533L20.6667 14H24.6667C24.6665 11.5416 23.8171 9.15875 22.2623 7.25452C20.7074 5.35029 18.5425 4.04159 16.1338 3.54981C13.7251 3.05803 11.2205 3.41336 9.04359 4.55569C6.86672 5.69802 5.15125 7.55722 4.18739 9.81878C3.22352 12.0803 3.07043 14.6054 3.75401 16.9669C4.43759 19.3283 5.91588 21.3811 7.9388 22.7781C9.96171 24.175 12.4051 24.8304 14.8555 24.6332C17.306 24.436 19.6132 23.3984 21.3867 21.696L22.716 24.0893Z" fill="white"/>
</svg>
