<svg width="18" height="22" viewBox="0 0 18 22" fill="none" xmlns="http://www.w3.org/2000/svg">
<path d="M2.66665 10.1107L16.2973 1.024C16.3977 0.957195 16.5143 0.918871 16.6348 0.913109C16.7552 0.907347 16.875 0.934364 16.9813 0.991282C17.0876 1.0482 17.1765 1.13289 17.2385 1.23633C17.3005 1.33976 17.3333 1.45808 17.3333 1.57867L17.3333 20.4213C17.3333 20.5419 17.3005 20.6602 17.2385 20.7637C17.1765 20.8671 17.0876 20.9518 16.9813 21.0087C16.875 21.0656 16.7552 21.0927 16.6348 21.0869C16.5143 21.0811 16.3977 21.0428 16.2973 20.976L2.66665 11.8893L2.66665 20.3333C2.66665 20.687 2.52617 21.0261 2.27612 21.2761C2.02607 21.5262 1.68693 21.6667 1.33331 21.6667C0.979691 21.6667 0.640551 21.5262 0.390503 21.2761C0.140453 21.0261 -2.09808e-05 20.687 -2.09808e-05 20.3333L-2.09808e-05 1.66667C-2.09808e-05 1.31305 0.140453 0.973907 0.390503 0.72386C0.640551 0.47381 0.979691 0.333336 1.33331 0.333336C1.68693 0.333336 2.02607 0.47381 2.27612 0.72386C2.52617 0.973907 2.66665 1.31305 2.66665 1.66667V10.1107ZM14.6666 16.684L14.6666 5.316L6.14131 11L14.6666 16.684Z" fill="white"/>
</svg>
