<svg width="18" height="22" viewBox="0 0 18 22" fill="none" xmlns="http://www.w3.org/2000/svg">
<path d="M15.3334 11.8893L1.70269 20.976C1.60229 21.0428 1.48566 21.0811 1.36521 21.0869C1.24476 21.0927 1.125 21.0656 1.01869 21.0087C0.912375 20.9518 0.823492 20.8671 0.761506 20.7637C0.699519 20.6602 0.666749 20.5419 0.666687 20.4213V1.57867C0.666749 1.45808 0.699519 1.33976 0.761506 1.23632C0.823492 1.13288 0.912375 1.0482 1.01869 0.991278C1.125 0.934359 1.24476 0.907342 1.36521 0.913104C1.48566 0.918866 1.60229 0.957192 1.70269 1.024L15.3334 10.1107V1.66667C15.3334 1.31304 15.4738 0.973905 15.7239 0.723857C15.9739 0.473808 16.3131 0.333332 16.6667 0.333332C17.0203 0.333332 17.3594 0.473808 17.6095 0.723857C17.8595 0.973905 18 1.31304 18 1.66667V20.3333C18 20.687 17.8595 21.0261 17.6095 21.2761C17.3594 21.5262 17.0203 21.6667 16.6667 21.6667C16.3131 21.6667 15.9739 21.5262 15.7239 21.2761C15.4738 21.0261 15.3334 20.687 15.3334 20.3333V11.8893ZM3.33335 5.316V16.684L11.8587 11L3.33335 5.316Z" fill="white"/>
</svg>
